<?xml version="1.0" standalone="no"?>
<!DOCTYPE svg PUBLIC "-//W3C//DTD SVG 20010904//EN"
 "http://www.w3.org/TR/2001/REC-SVG-20010904/DTD/svg10.dtd">
<svg version="1.0" xmlns="http://www.w3.org/2000/svg"
 width="498.000000pt" height="438.000000pt" viewBox="0 0 498.000000 438.000000"
 preserveAspectRatio="xMidYMid meet">
<metadata>
Created by potrace 1.16, written by Peter Selinger 2001-2019
</metadata>
<g transform="translate(0.000000,438.000000) scale(0.100000,-0.100000)"
fill="#000000" stroke="none">
<path d="M2760 4021 c0 -4 -32 -11 -70 -15 -39 -3 -78 -10 -88 -15 -20 -11
-53 -24 -67 -27 -29 -6 -55 -17 -55 -24 0 -4 -12 -11 -27 -15 -15 -3 -30 -10
-33 -13 -3 -4 -14 -12 -24 -18 -54 -29 -29 -34 173 -34 111 0 201 -4 201 -9 0
-10 -49 -21 -96 -21 -18 0 -35 -4 -38 -9 -4 -5 -30 -12 -59 -16 -48 -6 -71
-12 -122 -31 -11 -4 -24 -6 -29 -5 -9 2 -30 -6 -76 -29 -9 -4 -31 -11 -50 -14
-34 -7 -55 -14 -115 -42 -16 -7 -43 -16 -60 -20 -16 -4 -34 -10 -40 -14 -5 -4
-30 -10 -55 -14 -24 -4 -49 -11 -56 -17 -7 -5 -35 -12 -63 -16 -28 -3 -54 -10
-57 -14 -3 -5 -63 -9 -135 -9 -101 0 -129 -3 -129 -13 0 -18 32 -47 51 -47 8
0 19 -4 25 -10 5 -5 52 -13 102 -16 51 -4 95 -11 98 -16 3 -4 28 -8 55 -8 l50
0 -34 -30 c-19 -16 -39 -30 -44 -30 -14 0 -233 -217 -233 -231 0 -6 -16 -30
-35 -53 -19 -24 -35 -46 -35 -50 0 -5 -10 -22 -22 -39 -26 -36 -67 -117 -68
-132 0 -5 -12 -35 -27 -65 -14 -30 -30 -63 -34 -72 -5 -9 -12 -36 -15 -60 -4
-24 -10 -48 -15 -54 -5 -6 -11 -37 -15 -70 -4 -32 -11 -62 -17 -65 -14 -10
-14 -352 0 -381 6 -13 14 -35 17 -50 4 -16 10 -28 15 -28 13 0 41 58 41 85 0
12 3 25 8 29 4 4 7 11 8 14 0 4 7 21 14 37 7 17 13 33 12 38 -1 4 2 7 8 7 6 0
10 -31 10 -74 0 -41 4 -77 9 -80 5 -3 12 -42 16 -86 4 -44 11 -80 15 -80 4 0
10 -21 14 -46 3 -26 11 -53 18 -61 6 -8 13 -51 15 -96 3 -45 8 -91 13 -102 5
-11 11 -51 15 -90 6 -77 23 -125 42 -125 7 0 13 9 13 19 0 11 4 22 9 25 4 3
11 28 15 55 3 27 13 54 21 61 12 10 15 10 15 -1 0 -17 158 -176 191 -193 16
-8 25 -22 27 -43 2 -24 19 -48 64 -93 34 -33 66 -60 73 -60 7 0 19 -8 28 -18
21 -23 24 -127 5 -139 -16 -10 -48 -70 -48 -89 0 -8 -4 -14 -10 -14 -17 0
-130 -131 -130 -151 0 -8 -14 0 -32 18 -26 26 -32 41 -36 90 -5 67 -15 83 -49
83 -16 0 -39 14 -64 40 -41 42 -68 50 -89 25 -9 -11 -16 -12 -30 -3 -23 14
-50 -4 -50 -33 0 -11 -11 -24 -25 -31 -27 -12 -32 -37 -13 -56 9 -9 8 -12 -5
-12 -13 0 -17 -9 -17 -39 0 -21 6 -44 14 -50 23 -19 25 -49 5 -67 -16 -15 -18
-29 -15 -116 2 -56 8 -104 15 -111 6 -6 11 -17 11 -25 0 -13 49 -125 71 -162
5 -8 15 -28 22 -45 8 -16 21 -36 30 -44 10 -7 17 -18 17 -24 0 -17 90 -117
106 -117 8 0 14 -4 14 -10 0 -12 122 -13 136 -1 5 4 21 11 37 15 l27 6 0 -60
0 -60 1095 0 1095 0 0 59 c0 33 -4 62 -9 65 -5 3 -12 36 -16 73 -4 38 -10 73
-15 78 -4 6 -11 31 -14 57 -4 26 -11 50 -15 53 -5 2 -11 27 -15 55 -4 27 -11
50 -16 50 -4 0 -11 14 -15 31 -4 17 -31 77 -60 133 l-52 101 5 103 c2 56 9
105 13 108 5 3 9 45 9 93 0 82 -2 90 -26 114 -14 15 -41 29 -60 33 -25 5 -34
11 -34 26 0 17 7 19 63 18 71 0 125 8 133 21 3 5 12 9 20 9 9 0 48 16 88 35
84 40 167 121 205 200 26 53 28 59 37 145 4 32 15 68 28 85 29 42 65 116 66
138 0 37 19 15 25 -30 9 -64 12 -72 30 -79 22 -9 42 12 49 51 4 19 11 35 16
35 4 0 12 15 15 33 4 17 11 37 16 43 5 6 12 46 15 88 4 42 11 79 15 82 12 7
12 191 1 198 -5 3 -12 51 -16 108 -3 56 -10 105 -15 108 -4 3 -11 24 -15 48
-3 24 -12 51 -18 62 -16 25 -3 38 22 22 13 -8 63 -12 142 -12 105 1 126 3 146
19 12 11 22 21 22 24 0 4 -32 17 -55 22 -43 9 -156 66 -202 102 -23 18 -45 33
-50 33 -11 0 -113 103 -113 114 0 4 -16 27 -35 50 -19 24 -35 46 -35 50 0 4
-11 22 -25 40 -14 18 -25 36 -25 41 0 4 -12 24 -27 44 -32 41 -50 69 -60 91
-3 8 -12 19 -20 23 -7 4 -13 13 -13 20 0 14 -210 227 -223 227 -5 0 -28 16
-51 35 -24 19 -47 35 -51 35 -5 0 -22 10 -39 23 -35 25 -91 53 -121 61 -11 3
43 3 119 1 77 -2 144 -9 150 -15 5 -5 20 -10 33 -10 76 0 -68 118 -166 136
-20 4 -39 11 -42 15 -3 5 -40 12 -82 15 -43 4 -80 11 -83 15 -7 12 -121 12
-128 0 -3 -4 -34 -11 -70 -15 -35 -3 -77 -13 -93 -21 -39 -21 -45 -19 -83 20
-19 19 -40 35 -47 35 -7 0 -13 4 -13 9 0 5 -44 30 -97 56 -54 26 -106 52 -117
57 -10 5 -58 12 -107 15 -49 3 -92 10 -95 15 -7 11 -154 11 -154 -1z m-325
-1542 c6 -81 14 -167 21 -199 l5 -26 -86 1 c-112 0 -111 -18 1 -25 l86 -5 37
-105 c21 -58 52 -127 69 -155 17 -27 28 -52 24 -55 -4 -3 -118 -3 -255 0
l-247 5 53 115 c107 231 271 529 285 516 2 -2 5 -32 7 -67z m878 -92 c66 -128
164 -262 281 -384 l99 -104 -277 3 c-239 3 -276 5 -274 18 2 8 19 79 38 158
l34 143 57 -7 c34 -4 64 -2 75 4 25 14 7 21 -66 24 -54 3 -55 3 -54 33 2 54
27 205 33 205 3 0 28 -42 54 -93z m-621 -480 c80 -121 276 -302 307 -282 6 3
34 53 63 111 40 81 55 103 67 98 9 -4 40 -9 69 -12 50 -4 53 -6 48 -28 -5 -20
-2 -23 26 -26 48 -5 48 -28 0 -28 -27 0 -42 -5 -46 -16 -20 -51 8 -204 47
-261 28 -41 75 -53 211 -53 88 0 106 3 106 15 0 8 -3 15 -7 15 -119 3 -261 14
-271 22 -17 14 -41 67 -44 98 -3 20 2 25 27 31 47 10 113 10 120 -1 3 -5 21
-10 40 -10 19 0 37 5 40 10 8 13 126 13 159 0 32 -12 33 -38 4 -96 -26 -52
-16 -71 16 -31 56 70 61 225 11 350 -7 16 -2 18 46 15 l54 -3 -2 -80 c-1 -88
-20 -193 -59 -329 -14 -48 -22 -91 -19 -94 15 -15 251 130 338 208 63 56 128
141 178 234 22 42 43 76 45 76 3 0 18 -7 35 -15 40 -21 86 -87 94 -136 20
-119 -81 -276 -224 -349 -54 -27 -181 -60 -232 -60 -35 0 -55 -8 -94 -36 -130
-93 -301 -152 -560 -192 -39 -6 -51 -12 -53 -27 -2 -13 -18 -26 -50 -38 -104
-41 -151 -61 -235 -100 l-88 -40 -27 26 c-21 21 -24 29 -14 39 9 9 15 9 24 0
31 -31 37 0 12 65 -9 23 -24 45 -33 47 -9 3 -77 14 -151 25 -289 42 -531 139
-639 256 -34 37 -41 52 -41 85 0 42 17 53 39 26 7 -8 41 -27 77 -42 77 -33
100 -24 60 23 -30 35 -120 204 -141 262 -13 38 -12 47 6 106 l20 65 49 0 c38
0 50 -4 50 -15 0 -9 9 -15 25 -15 38 0 32 -28 -7 -32 l-33 -3 1 -100 c1 -80 6
-110 24 -152 33 -77 59 -86 224 -81 72 3 138 8 147 12 59 26 85 225 48 366 -3
11 5 16 29 18 37 4 51 25 34 53 -7 10 -14 44 -17 76 -6 65 -12 69 67 -50z
m-434 -125 c2 -7 -6 -12 -17 -12 -21 0 -27 11 -14 24 9 9 26 2 31 -12z m1103
-27 c-1 -15 -24 -12 -29 3 -3 9 2 13 12 10 10 -1 17 -7 17 -13z m-1032 -139
c18 -21 47 -25 77 -10 32 17 39 17 104 3 56 -12 59 -20 39 -89 -10 -34 -17
-40 -55 -49 -23 -6 -87 -11 -141 -11 -127 0 -155 15 -173 90 -7 29 -9 55 -4
60 24 22 136 26 153 6z m-585 -630 c14 -19 26 -46 26 -60 0 -32 13 -33 33 -3
16 22 16 21 16 -20 1 -36 -4 -46 -36 -72 -48 -40 -150 -94 -163 -86 -6 3 -10
12 -10 19 0 7 -11 34 -25 60 l-24 46 24 0 c29 0 29 -2 10 44 l-16 37 37 -7
c30 -5 36 -4 32 7 -4 8 -9 22 -13 32 -9 21 4 22 31 2 30 -23 47 -19 42 10 -7
34 5 31 36 -9z"/>
<path d="M2270 1960 c0 -6 28 -10 65 -10 37 0 65 4 65 10 0 6 -28 10 -65 10
-37 0 -65 -4 -65 -10z"/>
<path d="M3180 1962 c-6 -2 -8 -8 -4 -13 3 -5 49 -9 102 -9 118 0 113 17 -6
22 -45 2 -87 1 -92 0z"/>
<path d="M2850 1246 c0 -12 11 -16 46 -16 59 0 55 24 -4 28 -33 2 -42 0 -42
-12z"/>
</g>
</svg>
